# Blender v2.78 (sub 0) OBJ File: 'tree2.blend'
# www.blender.org
mtllib tree2.mtl
o Plane.006_Plane.028
v -0.628074 -0.637020 0.066371
v -0.228074 -0.637020 0.066371
v -0.628074 -0.237020 0.066371
v -0.228074 -0.237020 0.066371
vn 0.0000 -0.0000 1.0000
usemtl None
s off
f 1//1 2//1 4//1 3//1
o Plane.005_Plane.027
v -0.197410 -0.637020 0.066371
v 0.202590 -0.637020 0.066371
v -0.197410 -0.237020 0.066371
v 0.202590 -0.237020 0.066371
vn 0.0000 -0.0000 1.0000
usemtl None
s off
f 5//2 6//2 8//2 7//2
o Plane.004_Plane.026
v 0.233253 -0.637020 0.066371
v 0.633253 -0.637020 0.066371
v 0.233253 -0.237020 0.066371
v 0.633253 -0.237020 0.066371
vn 0.0000 -0.0000 1.0000
usemtl None
s off
f 9//3 10//3 12//3 11//3
o Plane.003_Plane.025
v 0.233253 -0.221848 0.066371
v 0.633253 -0.221848 0.066371
v 0.233253 0.178152 0.066371
v 0.633253 0.178152 0.066371
vn 0.0000 -0.0000 1.0000
usemtl None
s off
f 13//4 14//4 16//4 15//4
o Plane.002_Plane.024
v -0.203607 -0.221848 0.066371
v 0.196393 -0.221848 0.066371
v -0.203607 0.178152 0.066371
v 0.196393 0.178152 0.066371
vn 0.0000 -0.0000 1.0000
usemtl None
s off
f 17//5 18//5 20//5 19//5
o Plane.001_Plane.023
v -0.634270 -0.221848 0.066371
v -0.234270 -0.221848 0.066371
v -0.634270 0.178152 0.066371
v -0.234270 0.178152 0.066371
vn 0.0000 -0.0000 1.0000
usemtl None
s off
f 21//6 22//6 24//6 23//6
o Plane
v -1.004405 -0.539005 1.014633
v 0.995595 -0.539005 1.014633
v -1.004405 -0.539005 -0.985367
v 0.995595 -0.539005 -0.985367
vn 0.0000 1.0000 0.0000
usemtl None
s off
f 25//7 26//7 28//7 27//7
o Cube.009_Cube.020
v -0.032405 0.242682 0.014639
v -0.032405 0.870757 0.014639
v -0.032405 0.242682 -0.035079
v -0.032405 0.870757 -0.035079
v 0.017313 0.242682 0.014639
v 0.017313 0.870757 0.014639
v 0.017313 0.242682 -0.035079
v 0.017313 0.870757 -0.035079
vn -1.0000 0.0000 0.0000
vn 0.0000 0.0000 -1.0000
vn 1.0000 0.0000 0.0000
vn 0.0000 0.0000 1.0000
vn 0.0000 -1.0000 0.0000
vn 0.0000 1.0000 0.0000
usemtl None
s off
f 29//8 30//8 32//8 31//8
f 31//9 32//9 36//9 35//9
f 35//10 36//10 34//10 33//10
f 33//11 34//11 30//11 29//11
f 31//12 35//12 33//12 29//12
f 36//13 32//13 30//13 34//13
o Cube.014_Cube.017
v 0.210809 0.288461 0.014639
v 0.169151 0.281184 0.014639
v 0.210809 0.288461 -0.035079
v 0.169151 0.281184 -0.035079
v 0.163172 0.561158 0.014639
v 0.121514 0.553881 0.014639
v 0.163172 0.561158 -0.035079
v 0.121514 0.553881 -0.035079
vn 0.1721 -0.9851 0.0000
vn 0.0000 0.0000 -1.0000
vn -0.1721 0.9851 0.0000
vn -0.0000 -0.0000 1.0000
vn 0.9851 0.1721 0.0000
vn -0.9851 -0.1721 0.0000
usemtl None
s off
f 37//14 38//14 40//14 39//14
f 39//15 40//15 44//15 43//15
f 43//16 44//16 42//16 41//16
f 41//17 42//17 38//17 37//17
f 39//18 43//18 41//18 37//18
f 44//19 40//19 38//19 42//19
o Cube.013_Cube.016
v -0.184449 0.564285 0.014639
v -0.142730 0.557365 0.014639
v -0.184449 0.564285 -0.035079
v -0.142730 0.557365 -0.035079
v -0.229752 0.291191 0.014639
v -0.188033 0.284270 0.014639
v -0.229752 0.291191 -0.035079
v -0.188033 0.284270 -0.035079
vn 0.1637 0.9865 -0.0000
vn -0.0000 0.0000 -1.0000
vn -0.1637 -0.9865 0.0000
vn 0.0000 -0.0000 1.0000
vn -0.9865 0.1637 0.0000
vn 0.9865 -0.1637 -0.0000
usemtl None
s off
f 45//20 46//20 48//20 47//20
f 47//21 48//21 52//21 51//21
f 51//22 52//22 50//22 49//22
f 49//23 50//23 46//23 45//23
f 47//24 51//24 49//24 45//24
f 52//25 48//25 46//25 50//25
o Cube.012_Cube.015
v -0.480271 0.127163 0.014639
v -0.446543 0.152674 0.014639
v -0.480271 0.127163 -0.035079
v -0.446543 0.152674 -0.035079
v -0.313276 -0.093621 0.014639
v -0.279548 -0.068111 0.014639
v -0.313276 -0.093621 -0.035079
v -0.279548 -0.068111 -0.035079
vn -0.6032 0.7976 0.0000
vn -0.0000 0.0000 -1.0000
vn 0.6032 -0.7976 0.0000
vn 0.0000 -0.0000 1.0000
vn -0.7976 -0.6032 0.0000
vn 0.7976 0.6032 0.0000
usemtl None
s off
f 53//26 54//26 56//26 55//26
f 55//27 56//27 60//27 59//27
f 59//28 60//28 58//28 57//28
f 57//29 58//29 54//29 53//29
f 55//30 59//30 57//30 53//30
f 60//31 56//31 54//31 58//31
o Cube.010_Cube.013
v 0.298565 -0.105489 0.014639
v 0.269431 -0.074837 0.014639
v 0.298565 -0.105489 -0.035079
v 0.269431 -0.074837 -0.035079
v 0.499216 0.085225 0.014639
v 0.470082 0.115878 0.014639
v 0.499216 0.085225 -0.035079
v 0.470082 0.115878 -0.035079
vn -0.7248 -0.6889 0.0000
vn 0.0000 0.0000 -1.0000
vn 0.7248 0.6889 0.0000
vn -0.0000 -0.0000 1.0000
vn 0.6889 -0.7248 0.0000
vn -0.6889 0.7248 0.0000
usemtl None
s off
f 61//32 62//32 64//32 63//32
f 63//33 64//33 68//33 67//33
f 67//34 68//34 66//34 65//34
f 65//35 66//35 62//35 61//35
f 63//36 67//36 65//36 61//36
f 68//37 64//37 62//37 66//37
o Cube.008_Cube.011
v 0.016968 -0.532996 -0.034845
v 0.016968 -0.532996 0.014873
v -0.032750 -0.532996 0.014873
v -0.032750 -0.532996 -0.034845
v 0.016968 -0.302249 -0.034845
v 0.016968 -0.302249 0.014873
v -0.032750 -0.302249 0.014873
v -0.032750 -0.302249 -0.034845
vn 0.0000 -1.0000 0.0000
vn 0.0000 1.0000 0.0000
vn 1.0000 0.0000 0.0000
vn -0.0000 -0.0000 1.0000
vn -1.0000 -0.0000 -0.0000
vn 0.0000 0.0000 -1.0000
usemtl Material
s off
f 69//38 70//38 71//38 72//38
f 73//39 76//39 75//39 74//39
f 69//40 73//40 74//40 70//40
f 70//41 74//41 75//41 71//41
f 71//42 75//42 76//42 72//42
f 73//43 69//43 72//43 76//43
o Cube.007_Cube.010
v -0.032405 0.097547 0.014639
v -0.032405 0.226458 0.014639
v -0.032405 0.097547 -0.035079
v -0.032405 0.226458 -0.035079
v 0.017313 0.097547 0.014639
v 0.017313 0.226458 0.014639
v 0.017313 0.097547 -0.035079
v 0.017313 0.226458 -0.035079
vt 0.0000 0.0000
vt 1.0000 0.0000
vt 1.0000 1.0000
vt 0.0000 1.0000
vt 0.0000 0.0000
vt 1.0000 0.0000
vt 1.0000 1.0000
vt 0.0000 1.0000
vt 0.0000 0.0000
vt 1.0000 0.0000
vt 1.0000 1.0000
vt 0.0000 1.0000
vt 0.0000 0.0000
vt 1.0000 0.0000
vt 1.0000 1.0000
vt 0.0000 1.0000
vt 1.0000 0.0000
vt 1.0000 1.0000
vt 0.0000 0.0000
vt 0.0000 1.0000
vn -1.0000 0.0000 0.0000
vn 0.0000 0.0000 -1.0000
vn 1.0000 0.0000 0.0000
vn 0.0000 0.0000 1.0000
vn 0.0000 -1.0000 0.0000
vn 0.0000 1.0000 0.0000
usemtl None
s off
f 77/1/44 78/2/44 80/3/44 79/4/44
f 79/5/45 80/6/45 84/7/45 83/8/45
f 83/9/46 84/10/46 82/11/46 81/12/46
f 81/13/47 82/14/47 78/15/47 77/16/47
f 79/5/48 83/17/48 81/18/48 77/16/48
f 84/19/49 80/6/49 78/15/49 82/20/49
o Cube.006_Cube.009
v -0.299352 -0.117039 0.014639
v -0.278207 -0.080416 0.014639
v -0.299352 -0.117039 -0.035079
v -0.278207 -0.080416 -0.035079
v -0.059613 -0.255452 0.014639
v -0.038468 -0.218829 0.014639
v -0.059613 -0.255452 -0.035079
v -0.038468 -0.218829 -0.035079
vn -0.8660 0.5000 0.0000
vn 0.0000 0.0000 -1.0000
vn 0.8660 -0.5000 0.0000
vn 0.0000 -0.0000 1.0000
vn -0.5000 -0.8660 0.0000
vn 0.5000 0.8660 0.0000
usemtl None
s off
f 85//50 86//50 88//50 87//50
f 87//51 88//51 92//51 91//51
f 91//52 92//52 90//52 89//52
f 89//53 90//53 86//53 85//53
f 87//54 91//54 89//54 85//54
f 92//55 88//55 86//55 90//55
o Cube.005_Cube.008
v -0.231108 0.250259 0.014639
v -0.193104 0.268807 0.014639
v -0.231108 0.250259 -0.035079
v -0.193104 0.268807 -0.035079
v -0.109687 0.001482 0.014639
v -0.071683 0.020031 0.014639
v -0.109687 0.001482 -0.035079
v -0.071683 0.020031 -0.035079
vn -0.4386 0.8987 0.0000
vn -0.0000 0.0000 -1.0000
vn 0.4386 -0.8987 -0.0000
vn 0.0000 -0.0000 1.0000
vn -0.8987 -0.4386 0.0000
vn 0.8987 0.4386 -0.0000
usemtl None
s off
f 93//56 94//56 96//56 95//56
f 95//57 96//57 100//57 99//57
f 99//58 100//58 98//58 97//58
f 97//59 98//59 94//59 93//59
f 95//60 99//60 97//60 93//60
f 100//61 96//61 94//61 98//61
o Cube.004_Cube.007
v 0.086569 -0.003396 0.014639
v 0.049642 0.017214 0.014639
v 0.086569 -0.003396 -0.035079
v 0.049642 0.017214 -0.035079
v 0.221482 0.238330 0.014639
v 0.184555 0.258939 0.014639
v 0.221482 0.238330 -0.035079
v 0.184555 0.258939 -0.035079
vt 0.0000 0.0000
vt 1.0000 0.0000
vt 1.0000 1.0000
vt 0.0000 1.0000
vt 0.0000 0.0000
vt 1.0000 0.0000
vt 1.0000 1.0000
vt 0.0000 1.0000
vt 0.0000 0.0000
vt 1.0000 0.0000
vt 1.0000 1.0000
vt 0.0000 1.0000
vt 0.0000 0.0000
vt 1.0000 0.0000
vt 1.0000 1.0000
vt 0.0000 1.0000
vt 1.0000 0.0000
vt 1.0000 1.0000
vt 0.0000 0.0000
vt 0.0000 1.0000
vn -0.4874 -0.8732 0.0000
vn 0.0000 0.0000 -1.0000
vn 0.4874 0.8732 0.0000
vn -0.0000 -0.0000 1.0000
vn 0.8732 -0.4874 0.0000
vn -0.8732 0.4874 0.0000
usemtl None
s off
f 101/21/62 102/22/62 104/23/62 103/24/62
f 103/25/63 104/26/63 108/27/63 107/28/63
f 107/29/64 108/30/64 106/31/64 105/32/64
f 105/33/65 106/34/65 102/35/65 101/36/65
f 103/25/66 107/37/66 105/38/66 101/36/66
f 108/39/67 104/26/67 102/35/67 106/40/67
o Cube.003_Cube.006
v 0.045351 -0.257691 0.014639
v 0.024207 -0.221068 0.014639
v 0.045351 -0.257691 -0.035079
v 0.024207 -0.221068 -0.035079
v 0.285090 -0.119278 0.014639
v 0.263946 -0.082654 0.014639
v 0.285090 -0.119278 -0.035079
v 0.263946 -0.082654 -0.035079
vt 0.6667 0.3333
vt 0.3333 0.3333
vt 0.3333 0.0000
vt 0.6667 0.0000
vt 0.3333 0.6667
vt 0.0000 0.6667
vt 0.0000 0.3333
vt 0.3333 0.3333
vt 0.0000 0.0000
vt 0.3333 0.0000
vt 0.3333 0.6667
vt 0.3333 0.3333
vt 0.6667 0.3333
vt 0.6667 0.6667
vt 1.0000 0.3333
vt 0.6667 0.3333
vt 0.6667 0.0000
vt 1.0000 0.0000
vt 0.3333 0.6667
vt 0.3333 1.0000
vt 0.0000 1.0000
vt 0.0000 0.6667
vn -0.8660 -0.5000 0.0000
vn 0.0000 0.0000 -1.0000
vn 0.8660 0.5000 0.0000
vn -0.0000 -0.0000 1.0000
vn 0.5000 -0.8660 0.0000
vn -0.5000 0.8660 0.0000
usemtl None
s off
f 109/41/68 110/42/68 112/43/68 111/44/68
f 111/45/69 112/46/69 116/47/69 115/48/69
f 115/48/70 116/47/70 114/49/70 113/50/70
f 113/51/71 114/52/71 110/53/71 109/54/71
f 111/55/72 115/56/72 113/57/72 109/58/72
f 116/59/73 112/60/73 110/61/73 114/62/73
o Cube.002
v -0.032873 -0.039322 0.014639
v -0.032873 0.089588 0.014639
v -0.032873 -0.039322 -0.035079
v -0.032873 0.089588 -0.035079
v 0.016845 -0.039322 0.014639
v 0.016845 0.089588 0.014639
v 0.016845 -0.039322 -0.035079
v 0.016845 0.089588 -0.035079
vn -1.0000 0.0000 0.0000
vn 0.0000 0.0000 -1.0000
vn 1.0000 0.0000 0.0000
vn 0.0000 0.0000 1.0000
vn 0.0000 -1.0000 0.0000
vn 0.0000 1.0000 0.0000
usemtl None
s off
f 117//74 118//74 120//74 119//74
f 119//75 120//75 124//75 123//75
f 123//76 124//76 122//76 121//76
f 121//77 122//77 118//77 117//77
f 119//78 123//78 121//78 117//78
f 124//79 120//79 118//79 122//79
o Cube.001
v -0.032848 -0.041791 0.014639
v -0.032848 -0.160005 0.014639
v -0.032848 -0.041791 -0.035079
v -0.032848 -0.160005 -0.035079
v 0.016870 -0.041791 0.014639
v 0.016870 -0.160005 0.014639
v 0.016870 -0.041791 -0.035079
v 0.016870 -0.160005 -0.035079
vn 1.0000 0.0000 0.0000
vn 0.0000 0.0000 1.0000
vn -1.0000 0.0000 0.0000
vn 0.0000 0.0000 -1.0000
vn 0.0000 -1.0000 0.0000
vn 0.0000 1.0000 0.0000
usemtl None
s off
f 125//80 126//80 128//80 127//80
f 127//81 128//81 132//81 131//81
f 131//82 132//82 130//82 129//82
f 129//83 130//83 126//83 125//83
f 127//84 131//84 129//84 125//84
f 132//85 128//85 126//85 130//85
o Cube
v 0.016968 -0.290322 -0.034845
v 0.016968 -0.290322 0.014873
v -0.032750 -0.290322 0.014873
v -0.032750 -0.290322 -0.034845
v 0.016968 -0.162806 -0.034845
v 0.016968 -0.162806 0.014873
v -0.032750 -0.162806 0.014873
v -0.032750 -0.162806 -0.034845
vn 0.0000 -1.0000 0.0000
vn 0.0000 1.0000 -0.0000
vn 1.0000 0.0000 0.0000
vn -0.0000 -0.0000 1.0000
vn -1.0000 -0.0000 -0.0000
vn 0.0000 0.0000 -1.0000
usemtl Material
s off
f 133//86 134//86 135//86 136//86
f 137//87 140//87 139//87 138//87
f 133//88 137//88 138//88 134//88
f 134//89 138//89 139//89 135//89
f 135//90 139//90 140//90 136//90
f 137//91 133//91 136//91 140//91
